<mxfile host="app.diagrams.net" agent="Mozilla/5.0 (Macintosh; Intel Mac OS X 10_15_7) AppleWebKit/537.36 (KHTML, like Gecko) Chrome/128.0.0.0 Safari/537.36" version="24.8.4">
  <diagram name="Page-1" id="13e1069c-82ec-6db2-03f1-153e76fe0fe0">
    <mxGraphModel dx="954" dy="528" grid="1" gridSize="10" guides="1" tooltips="1" connect="1" arrows="1" fold="1" page="1" pageScale="1" pageWidth="1100" pageHeight="850" background="none" math="0" shadow="0">
      <root>
        <mxCell id="0" />
        <mxCell id="1" parent="0" />
        <mxCell id="9leWPHxGZQsihvLBooxT-1" value="退款流程" style="shape=umlFrame;whiteSpace=wrap;html=1;pointerEvents=0;" vertex="1" parent="1">
          <mxGeometry x="120" y="60" width="770" height="760" as="geometry" />
        </mxCell>
        <mxCell id="9leWPHxGZQsihvLBooxT-2" value="订单服务" style="shape=umlLifeline;perimeter=lifelinePerimeter;whiteSpace=wrap;html=1;container=1;dropTarget=0;collapsible=0;recursiveResize=0;outlineConnect=0;portConstraint=eastwest;newEdgeStyle={&quot;curved&quot;:0,&quot;rounded&quot;:0};" vertex="1" parent="1">
          <mxGeometry x="230" y="100" width="100" height="570" as="geometry" />
        </mxCell>
        <mxCell id="9leWPHxGZQsihvLBooxT-12" value="" style="html=1;points=[[0,0,0,0,5],[0,1,0,0,-5],[1,0,0,0,5],[1,1,0,0,-5]];perimeter=orthogonalPerimeter;outlineConnect=0;targetShapes=umlLifeline;portConstraint=eastwest;newEdgeStyle={&quot;curved&quot;:0,&quot;rounded&quot;:0};" vertex="1" parent="9leWPHxGZQsihvLBooxT-2">
          <mxGeometry x="45" y="120" width="10" height="40" as="geometry" />
        </mxCell>
        <mxCell id="9leWPHxGZQsihvLBooxT-13" value="校验订单状态&lt;div&gt;退款金额是否正确&lt;/div&gt;" style="html=1;align=left;spacingLeft=2;endArrow=block;rounded=0;edgeStyle=orthogonalEdgeStyle;curved=0;rounded=0;" edge="1" target="9leWPHxGZQsihvLBooxT-12" parent="9leWPHxGZQsihvLBooxT-2">
          <mxGeometry x="0.0118" relative="1" as="geometry">
            <mxPoint x="50" y="100" as="sourcePoint" />
            <Array as="points">
              <mxPoint x="80" y="130" />
            </Array>
            <mxPoint as="offset" />
          </mxGeometry>
        </mxCell>
        <mxCell id="9leWPHxGZQsihvLBooxT-14" value="" style="html=1;points=[[0,0,0,0,5],[0,1,0,0,-5],[1,0,0,0,5],[1,1,0,0,-5]];perimeter=orthogonalPerimeter;outlineConnect=0;targetShapes=umlLifeline;portConstraint=eastwest;newEdgeStyle={&quot;curved&quot;:0,&quot;rounded&quot;:0};" vertex="1" parent="9leWPHxGZQsihvLBooxT-2">
          <mxGeometry x="45" y="210" width="10" height="40" as="geometry" />
        </mxCell>
        <mxCell id="9leWPHxGZQsihvLBooxT-15" value="保存售后信息&lt;div&gt;（子订单已取消&lt;/div&gt;&lt;div&gt;订单退款中）&lt;/div&gt;" style="html=1;align=left;spacingLeft=2;endArrow=block;rounded=0;edgeStyle=orthogonalEdgeStyle;curved=0;rounded=0;" edge="1" target="9leWPHxGZQsihvLBooxT-14" parent="9leWPHxGZQsihvLBooxT-2">
          <mxGeometry relative="1" as="geometry">
            <mxPoint x="50" y="190" as="sourcePoint" />
            <Array as="points">
              <mxPoint x="80" y="220" />
            </Array>
          </mxGeometry>
        </mxCell>
        <mxCell id="9leWPHxGZQsihvLBooxT-21" value="" style="html=1;points=[[0,0,0,0,5],[0,1,0,0,-5],[1,0,0,0,5],[1,1,0,0,-5]];perimeter=orthogonalPerimeter;outlineConnect=0;targetShapes=umlLifeline;portConstraint=eastwest;newEdgeStyle={&quot;curved&quot;:0,&quot;rounded&quot;:0};" vertex="1" parent="9leWPHxGZQsihvLBooxT-2">
          <mxGeometry x="45" y="438" width="10" height="40" as="geometry" />
        </mxCell>
        <mxCell id="9leWPHxGZQsihvLBooxT-22" value="修改退款记录为&lt;div&gt;退款成功/退款失败&lt;/div&gt;" style="html=1;align=left;spacingLeft=2;endArrow=block;rounded=0;edgeStyle=orthogonalEdgeStyle;curved=0;rounded=0;" edge="1" target="9leWPHxGZQsihvLBooxT-21" parent="9leWPHxGZQsihvLBooxT-2">
          <mxGeometry relative="1" as="geometry">
            <mxPoint x="50" y="418" as="sourcePoint" />
            <Array as="points">
              <mxPoint x="80" y="448" />
            </Array>
          </mxGeometry>
        </mxCell>
        <mxCell id="9leWPHxGZQsihvLBooxT-3" value="Actor" style="shape=umlActor;verticalLabelPosition=bottom;verticalAlign=top;html=1;" vertex="1" parent="1">
          <mxGeometry x="160" y="160" width="30" height="60" as="geometry" />
        </mxCell>
        <mxCell id="9leWPHxGZQsihvLBooxT-8" value="申请退款" style="html=1;verticalAlign=bottom;endArrow=block;curved=0;rounded=0;" edge="1" parent="1">
          <mxGeometry width="80" relative="1" as="geometry">
            <mxPoint x="200" y="180" as="sourcePoint" />
            <mxPoint x="280" y="180" as="targetPoint" />
          </mxGeometry>
        </mxCell>
        <mxCell id="9leWPHxGZQsihvLBooxT-9" value="商品服务" style="shape=umlLifeline;perimeter=lifelinePerimeter;whiteSpace=wrap;html=1;container=1;dropTarget=0;collapsible=0;recursiveResize=0;outlineConnect=0;portConstraint=eastwest;newEdgeStyle={&quot;curved&quot;:0,&quot;rounded&quot;:0};" vertex="1" parent="1">
          <mxGeometry x="390" y="100" width="100" height="700" as="geometry" />
        </mxCell>
        <mxCell id="9leWPHxGZQsihvLBooxT-10" value="PMS服务" style="shape=umlLifeline;perimeter=lifelinePerimeter;whiteSpace=wrap;html=1;container=1;dropTarget=0;collapsible=0;recursiveResize=0;outlineConnect=0;portConstraint=eastwest;newEdgeStyle={&quot;curved&quot;:0,&quot;rounded&quot;:0};" vertex="1" parent="1">
          <mxGeometry x="550" y="100" width="100" height="700" as="geometry" />
        </mxCell>
        <mxCell id="9leWPHxGZQsihvLBooxT-11" value="微信支付" style="shape=umlLifeline;perimeter=lifelinePerimeter;whiteSpace=wrap;html=1;container=1;dropTarget=0;collapsible=0;recursiveResize=0;outlineConnect=0;portConstraint=eastwest;newEdgeStyle={&quot;curved&quot;:0,&quot;rounded&quot;:0};" vertex="1" parent="1">
          <mxGeometry x="730" y="100" width="100" height="700" as="geometry" />
        </mxCell>
        <mxCell id="9leWPHxGZQsihvLBooxT-18" value="异步退库存【可不调用】" style="html=1;verticalAlign=bottom;endArrow=block;curved=0;rounded=0;" edge="1" parent="1">
          <mxGeometry width="80" relative="1" as="geometry">
            <mxPoint x="280" y="388" as="sourcePoint" />
            <mxPoint x="439.5" y="388" as="targetPoint" />
          </mxGeometry>
        </mxCell>
        <mxCell id="9leWPHxGZQsihvLBooxT-19" value="异步发起退款" style="html=1;verticalAlign=bottom;endArrow=block;curved=0;rounded=0;" edge="1" parent="1">
          <mxGeometry width="80" relative="1" as="geometry">
            <mxPoint x="280" y="418" as="sourcePoint" />
            <mxPoint x="779.5" y="418" as="targetPoint" />
          </mxGeometry>
        </mxCell>
        <mxCell id="9leWPHxGZQsihvLBooxT-20" value="退款回调" style="html=1;verticalAlign=bottom;endArrow=open;endSize=8;curved=0;rounded=0;" edge="1" parent="1">
          <mxGeometry relative="1" as="geometry">
            <mxPoint x="780" y="488" as="sourcePoint" />
            <mxPoint x="279.5" y="488" as="targetPoint" />
          </mxGeometry>
        </mxCell>
        <mxCell id="9leWPHxGZQsihvLBooxT-23" value="" style="text;strokeColor=none;fillColor=none;align=left;verticalAlign=middle;spacingTop=-1;spacingLeft=4;spacingRight=4;rotatable=0;labelPosition=right;points=[];portConstraint=eastwest;" vertex="1" parent="1">
          <mxGeometry x="80" y="425" width="20" height="14" as="geometry" />
        </mxCell>
        <mxCell id="9leWPHxGZQsihvLBooxT-24" value="" style="text;strokeColor=none;fillColor=none;align=left;verticalAlign=middle;spacingTop=-1;spacingLeft=4;spacingRight=4;rotatable=0;labelPosition=right;points=[];portConstraint=eastwest;" vertex="1" parent="1">
          <mxGeometry x="30" y="450" width="20" height="14" as="geometry" />
        </mxCell>
        <mxCell id="9leWPHxGZQsihvLBooxT-25" value="" style="line;strokeWidth=3;fillColor=#ffe6cc;align=left;verticalAlign=middle;spacingTop=-1;spacingLeft=3;spacingRight=3;rotatable=0;labelPosition=right;points=[];portConstraint=eastwest;strokeColor=#d79b00;dashed=1;" vertex="1" parent="1">
          <mxGeometry x="140" y="450" width="730" height="8" as="geometry" />
        </mxCell>
        <mxCell id="9leWPHxGZQsihvLBooxT-28" value="全部退款成功" style="rhombus;whiteSpace=wrap;html=1;fontColor=#000000;fillColor=#ffffc0;strokeColor=#ff0000;" vertex="1" parent="1">
          <mxGeometry x="240" y="590" width="80" height="40" as="geometry" />
        </mxCell>
        <mxCell id="9leWPHxGZQsihvLBooxT-29" value="no" style="edgeStyle=orthogonalEdgeStyle;html=1;align=left;verticalAlign=bottom;endArrow=open;endSize=8;strokeColor=#ff0000;rounded=0;" edge="1" source="9leWPHxGZQsihvLBooxT-28" parent="1">
          <mxGeometry x="-1" relative="1" as="geometry">
            <mxPoint x="360" y="610" as="targetPoint" />
          </mxGeometry>
        </mxCell>
        <mxCell id="9leWPHxGZQsihvLBooxT-30" value="yes" style="edgeStyle=orthogonalEdgeStyle;html=1;align=left;verticalAlign=top;endArrow=open;endSize=8;strokeColor=#ff0000;rounded=0;" edge="1" source="9leWPHxGZQsihvLBooxT-28" parent="1">
          <mxGeometry x="-1" relative="1" as="geometry">
            <mxPoint x="280" y="670" as="targetPoint" />
          </mxGeometry>
        </mxCell>
        <mxCell id="9leWPHxGZQsihvLBooxT-31" value="" style="html=1;points=[[0,0,0,0,5],[0,1,0,0,-5],[1,0,0,0,5],[1,1,0,0,-5]];perimeter=orthogonalPerimeter;outlineConnect=0;targetShapes=umlLifeline;portConstraint=eastwest;newEdgeStyle={&quot;curved&quot;:0,&quot;rounded&quot;:0};" vertex="1" parent="1">
          <mxGeometry x="275" y="670" width="10" height="130" as="geometry" />
        </mxCell>
        <mxCell id="9leWPHxGZQsihvLBooxT-33" value="" style="html=1;points=[[0,0,0,0,5],[0,1,0,0,-5],[1,0,0,0,5],[1,1,0,0,-5]];perimeter=orthogonalPerimeter;outlineConnect=0;targetShapes=umlLifeline;portConstraint=eastwest;newEdgeStyle={&quot;curved&quot;:0,&quot;rounded&quot;:0};" vertex="1" parent="1">
          <mxGeometry x="280" y="700" width="10" height="40" as="geometry" />
        </mxCell>
        <mxCell id="9leWPHxGZQsihvLBooxT-34" value="主订单改为退款成功" style="html=1;align=left;spacingLeft=2;endArrow=block;rounded=0;edgeStyle=orthogonalEdgeStyle;curved=0;rounded=0;" edge="1" target="9leWPHxGZQsihvLBooxT-33" parent="1">
          <mxGeometry relative="1" as="geometry">
            <mxPoint x="285" y="680" as="sourcePoint" />
            <Array as="points">
              <mxPoint x="315" y="710" />
            </Array>
          </mxGeometry>
        </mxCell>
        <mxCell id="9leWPHxGZQsihvLBooxT-37" value="调用pms冲账接口、再调用订单取消接口" style="html=1;verticalAlign=bottom;endArrow=block;curved=0;rounded=0;" edge="1" parent="1" target="9leWPHxGZQsihvLBooxT-10">
          <mxGeometry width="80" relative="1" as="geometry">
            <mxPoint x="290" y="760" as="sourcePoint" />
            <mxPoint x="370" y="760" as="targetPoint" />
          </mxGeometry>
        </mxCell>
        <mxCell id="9leWPHxGZQsihvLBooxT-40" value="" style="ellipse;html=1;shape=endState;fillColor=#000000;strokeColor=#ff0000;" vertex="1" parent="1">
          <mxGeometry x="370" y="595" width="30" height="30" as="geometry" />
        </mxCell>
      </root>
    </mxGraphModel>
  </diagram>
</mxfile>
